<?xml version="1.0" encoding="UTF-8" standalone="no"?>
<!-- Created with Inkscape (http://www.inkscape.org/) -->

<svg
   xmlns:dc="http://purl.org/dc/elements/1.1/"
   xmlns:cc="http://creativecommons.org/ns#"
   xmlns:rdf="http://www.w3.org/1999/02/22-rdf-syntax-ns#"
   xmlns:svg="http://www.w3.org/2000/svg"
   xmlns="http://www.w3.org/2000/svg"
   version="1.1"
   width="744.09448"
   height="340"
   id="svg4256">
  <defs
     id="defs4258" />
  <metadata
     id="metadata4261">
    <rdf:RDF>
      <cc:Work
         rdf:about="">
        <dc:format>image/svg+xml</dc:format>
        <dc:type
           rdf:resource="http://purl.org/dc/dcmitype/StillImage" />
        <dc:title></dc:title>
      </cc:Work>
    </rdf:RDF>
  </metadata>
  <g
     transform="translate(0,-712.36218)"
     id="layer1">
    <g
       transform="matrix(3.1233502,0,0,-3.1233502,-531.01981,1144.9944)"
       id="g8457">
      <path
         d="m 338.2464,112.5723 c -3.4552,-0.7243 -13.5519,-0.6871 -13.5519,4.0751 0,3.8273 2.9854,8.9844 6.3042,11.0378 l -1.9162,1.7493 c -4.5042,-0.3751 -8.0475,-1.008 -13.502,-1.1109 -2.8525,-0.0533 -11.5509,-0.3544 -13.5116,1.9876 -0.9581,1.1438 -0.002,2.3542 0.6775,3.511 l -2.2561,2.577 c -13.9286,-7.3701 -25.9963,-25.5535 -21.4679,-41.5831 1.6387,-5.8017 5.0905,-10.3465 10.2033,-13.4107 -3.8194,3.0041 -6.891,7.0594 -8.3222,11.7391 -0.8042,2.6288 -0.9411,4.6355 -0.9411,7.3309 0,8.4172 3.8165,17.7341 9.8895,23.6758 3.4129,3.3395 5.4972,5.5095 9.5386,8.2157 1.7742,-6.645 13.6808,-5.8652 22.3602,-5.8652 -4.862,-2.4715 -9.6534,-5.0445 -14.0584,-8.3021 -11.8556,-8.767 -19.6393,-31.4288 -3.1122,-41.0179 -5.3393,3.24 -8.0654,10.3502 -7.7556,16.329 0.2929,5.65 2.1566,9.8691 4.2684,13.6939 2.079,3.765 7.632,8.2111 9.2943,9.4003 3.0566,2.1846 9.8569,6.9122 14.2965,8.0637 -0.4603,-1.2719 -1.9222,-4.4161 -1.9916,-5.4978 -0.4195,-6.552 6.6509,-8.4087 13.3551,-9.1642 -9.8543,-4.7148 -23.8603,-11.8712 -24.457,-24.5738 -0.1539,-3.2666 0.8668,-7.272 5.3402,-11.4284 -6.1798,9.2412 -3.1073,16.3604 2.2056,22.5785 3.602,4.2165 8.4289,6.3258 12.1459,7.1921 -0.9845,-1.8599 -3.2995,-5.679 -3.2995,-8.4314 0,-2.1002 1.4587,-3.6919 2.5362,-4.1227 1.1707,-0.4683 3.3321,-0.4969 4.7956,-0.6426 -6.2688,-2.6246 -12.0968,-7.5294 -12.0968,-15.0293 0,-2.7817 1.9607,-4.6072 3.8871,-6.2929 -7.2955,7.734 3.1609,19.5327 11.5852,19.6038 l -2.687,3.6672 c -1.4502,-0.2617 -5.0935,-0.7597 -5.8311,0.8345 -0.8059,1.7405 4.051,13.8711 10.3887,16.0886 -0.9848,2.0971 -1.4712,2.1507 -2.3139,3.1221"
         id="path7797"
         style="fill:#8da65c;fill-opacity:1;fill-rule:evenodd;stroke:none" />
      <path
         d="m 212.4315,65.5682 1.8232,-1.7841 c 1.3751,-0.11 2.0965,-0.1358 4.1108,-0.279 2.0146,-0.1423 7.5081,0.0196 10.457,0.8799 2.5067,0.7308 7.0404,1.925 9.6976,2.7258 2.9639,0.8935 6.9934,2.7201 8.716,3.5297 2.1101,0.9913 8.4521,5.0287 15.2073,6.6654 5.9851,1.6719 13.2284,3.2604 20.0976,2.594 l -2.3575,2.2323 c -13.0816,0.1771 -23.8258,-3.678 -31.8138,-7.9807 -4.9527,-2.6685 -18.023,-8.0586 -27.1506,-8.767 -2.8902,-0.2248 -5.6131,-0.0626 -8.7876,0.1837"
         id="path7799"
         style="fill:#8da65c;fill-opacity:1;fill-rule:evenodd;stroke:none" />
      <path
         d="m 379.2271,49.3594 c 6.9724,-0.0819 15.4712,1.2424 23.2121,2.8026 l -1.7921,2.2096 c -9.0964,-2.0982 -16.3205,-3.1252 -26.8427,-3.0158 -13.0949,0.1358 -29.8607,3.2032 -40.6887,11.3636 8.1309,-12.1428 33.5006,-13.2134 46.1114,-13.36"
         id="path7801"
         style="fill:#8da65c;fill-opacity:1;fill-rule:evenodd;stroke:none" />
      <path
         d="m 258.336,32.6889 c -1.453,1.9108 -1.7569,3.4035 -1.3629,5.7333 0.9346,5.5278 13.0394,10.8621 18.6593,16.6385 0.881,0.906 1.3057,1.626 1.5268,2.4132 l -2.2598,2.0179 c -1.8391,-5.7381 -11.9531,-10.0715 -16.5095,-14.3739 -2.0948,-1.9774 -4.8793,-4.8455 -3.4243,-8.0164 0.6684,-1.4561 2.1495,-3.2621 3.3704,-4.4126"
         id="path7803"
         style="fill:#8da65c;fill-opacity:1;fill-rule:evenodd;stroke:none" />
      <path
         d="m 174.7706,48.7726 2.5192,-3.2505 c -0.148,0.7283 -0.1947,0.5091 -0.034,1.8856 0.6111,5.2314 13.121,6.3284 17.1635,9.5803 2.2184,1.7844 3.846,4.9791 3.4327,7.8591 l -2.2067,2.3618 c 0.008,-2.9937 -0.3603,-6.412 -3.0646,-8.3823 -5.0278,-3.6641 -12.8551,-3.0742 -16.7822,-7.7653 -0.7033,-0.8402 -0.9442,-1.9905 -1.0279,-2.2887"
         id="path7805"
         style="fill:#8da65c;fill-opacity:1;fill-rule:evenodd;stroke:none" />
      <path
         d="m 200.4165,73.2064 c -2.0945,-2.3142 -0.6828,-5.4425 1.5906,-6.8989 l 1.779,-0.2662 c -1.438,1.6344 -2.6963,3.2502 -1.2351,5.3283 1.6112,2.2932 3.7412,3.4821 6.6218,3.2045 -1.6994,-0.8444 -4.8467,-3.7992 -3.2355,-5.9419 l 1.8595,-2.4721 c 0,0 -0.1998,0.8243 -0.1264,1.6013 0.3926,4.1592 4.6811,6.0978 8.0736,7.4143 0,0 -2.4338,1.4893 -4.6312,1.7968 -4.3506,0.6081 -7.6414,-0.3934 -10.6963,-3.7661"
         id="path7807"
         style="fill:#8da65c;fill-opacity:1;fill-rule:evenodd;stroke:none" />
      <path
         d="m 199.7124,60.5092 c -0.007,-0.0507 0.0431,-0.0947 0.0777,-0.1463 0.6355,-0.9368 1.2778,-1.567 2.1319,-2.357 0.0193,-0.0178 0.0371,-0.0354 0.0689,-0.0445 0.0317,-0.0085 0.0709,-0.0062 0.1168,-0.0048 0.3725,0.0111 0.9555,0.0091 1.4227,0.0023 0.1001,-0.0012 0.191,-0.0151 0.2197,0.0136 0.0286,0.0286 0.017,0.0473 -0.0136,0.089 -0.4726,0.6443 -2.1274,2.586 -2.753,3.1232 -0.0678,0.0573 -0.1171,0.0428 -0.1528,0.0428 -0.0366,0 -0.1293,-0.0111 -0.2194,-0.0678 -0.2095,-0.132 -0.5539,-0.3738 -0.7591,-0.5193 -0.0984,-0.0703 -0.1333,-0.0813 -0.1398,-0.1312"
         id="path7809"
         style="fill:#8da65c;fill-opacity:1;fill-rule:evenodd;stroke:none" />
    </g>
  </g>
</svg>
